inDegrees=yes
name=ik_S56_A01_T01
DataType=double
version=3
OpenSimVersion=4.3-2021-08-27-4bc7ad9
endheader
time	pelvis_tilt	pelvis_list	pelvis_rotation	pelvis_tx	pelvis_ty	pelvis_tz	hip_flexion_r	hip_adduction_r	hip_rotation_r	knee_angle_r	knee_angle_r_beta	ankle_angle_r	subtalar_angle_r	mtp_angle_r	hip_flexion_l	hip_adduction_l	hip_rotation_l	knee_angle_l	knee_angle_l_beta	ankle_angle_l	subtalar_angle_l	mtp_angle_l	lumbar_extension	lumbar_bending	lumbar_rotation	arm_flex_r	arm_add_r	arm_rot_r	elbow_flex_r	pro_sup_r	wrist_flex_r	wrist_dev_r	arm_flex_l	arm_add_l	arm_rot_l	elbow_flex_l	pro_sup_l	wrist_flex_l	wrist_dev_l
0	0	0	0	0	0.9399999999999999	0	0	0	0	0	0	0	0	0	0	0	0	0	0	0	0	0	0	0	0	0	0	0	0	89.99999999963507	0	0	0	0	0	0	89.99999999869995	0	0
0.12	-0.2254798426623761	0.8159834208770008	-84.16848629948041	0	0.9399999999999999	0	-1.150582818593449	0.2603912492901724	3.468144636368126	-3.500171599887152	-0.06108951880282838	0	0	0	-0.7907633577802494	2.101223490637661	2.81906567706777	-1.530693011350829	-0.0267156328853389	0	0	0	0	0	0	2.727115422803036	-2.727115422803036	0.4923992381502938	11.86974913620384	89.50760079042014	0	0	2.727115422803036	-2.727115422803036	0.4923992381502938	11.86974913620384	89.5076007895773	0	0
0.14	-0.2274069079388518	0.8744912851018219	-84.12509588165558	0	0.9399999999999999	0	-1.101593962980054	0.2520669554487146	3.51564804058984	-3.48471712834734	-0.06081978739030291	0	0	0	-0.7476347360772405	2.094328073646085	2.848143495045758	-1.540177204694968	-0.02688116328608986	0	0	0	0	0	0	3.231180406941216	-3.231180406941217	0.5841562771264874	13.49481468608377	89.41584375682366	0	0	3.231180406941216	-3.231180406941217	0.5841562771264874	13.49481468608377	89.41584375599798	0	0
0.16	-0.2381553248928797	0.9020927401701737	-84.12212257869307	0	0.9399999999999999	0	-1.035764340188444	0.2642743514567915	3.538116401525998	-3.212776527378706	-0.05607352853354816	0	0	0	-0.7042845379898041	2.086125475197017	2.814933690963566	-1.374327515574205	-0.02398654014752352	0	0	0	0	0	0	3.713742094903366	-3.713742094903369	0.6718952560002884	15.1375977582925	89.32810478309422	0	0	3.713742094903366	-3.713742094903369	0.6718952560002884	15.1375977582925	89.32810478228501	0	0
0.18	-0.2276955711927492	0.9091480508617208	-84.1066814768909	0	0.9399999999999999	0	-1.114255843088551	0.2629931664996856	3.56480096793659	-3.479975233510181	-0.06073702571261116	0	0	0	-0.8019248326964157	2.072231137651093	2.835238152828826	-1.643439096726933	-0.02868342329388655	0	0	0	0	0	0	4.028748209025886	-4.02874820902589	0.7293956864008816	16.20783347243724	89.27060435606896	0	0	4.028748209025886	-4.02874820902589	0.7293956864008816	16.20783347243724	89.27060435527052	0	0
0.2	-0.2155339370527256	0.9471615055983514	-84.09615040373923	0	0.9399999999999999	0	-1.102651982903502	0.246867117694777	3.574891636870765	-3.508103890573554	-0.06122796339253139	0	0	0	-0.760468659302627	2.08814846865246	2.844103389671146	-1.650991264552609	-0.02881523348810777	0	0	0	0	0	0	4.487364016815251	-4.487364016815255	0.8115577679799092	17.66117991657388	89.18844227929058	0	0	4.487364016815251	-4.487364016815255	0.8115577679799092	17.66117991657388	89.18844227850757	0	0
0.22	-0.2276556760660833	1.033024969166576	-84.08442550068163	0	0.9399999999999999	0	-0.9817606989613884	0.2508668646165725	3.559701627256457	-3.298001727310455	-0.05756098887802762	0	0	0	-0.6445489082014847	2.064673739619186	2.813800151569887	-1.454024883557731	-0.02537752162400957	0	0	0	0	0	0	4.582393067217932	-4.582393067217936	0.8287557910283446	18.01084953673146	89.17124425725001	0	0	4.582393067217932	-4.582393067217936	0.8287557910283446	18.01084953673146	89.17124425647025	0	0
0.24	-0.2155879254431271	1.021811244218513	-84.04206351747307	0	0.9399999999999999	0	-1.081357952278517	0.2465460500490713	3.564755370342253	-3.595629475962973	-0.06275557303731219	0	0	0	-0.7808951597377992	2.093331534453939	2.847798595236471	-1.740300280258924	-0.03037396986389829	0	0	0	0	0	0	4.889720872808529	-4.889720872808533	0.8840734045858584	19.04449969010152	89.1159266469293	0	0	4.889720872808529	-4.889720872808533	0.8840734045858584	19.04449969010152	89.11592664615991	0	0
0.26	-0.1928520014182983	1.034164129547046	-84.01425166045517	0	0.9399999999999999	0	-1.092545293658693	0.2220803507311105	3.545370758431556	-3.55161755360331	-0.06198742008200395	0	0	0	-0.7484797548868444	2.101905874183885	2.878074505837968	-1.699689963961692	-0.02966518613423529	0	0	0	0	0	0	5.316751404331599	-5.316751404331605	0.9596954284586486	20.38874230576412	89.04030462746402	0	0	5.316751404331599	-5.316751404331605	0.9596954284586486	20.38874230576412	89.04030462670889	0	0
0.28	-0.1979645693594016	1.05820596032237	-83.99727824642753	0	0.9399999999999999	0	-1.072851014694715	0.2304318113535784	3.54896086540162	-3.550976846983362	-0.06197623764194654	0	0	0	-0.7664062954213681	2.100598367955298	2.864503893425114	-1.713188006949903	-0.0299007714269553	0	0	0	0	0	0	5.400133936044186	-5.400133936044191	0.9744852468427491	20.66161489019196	89.02551480994248	0	0	5.400133936044186	-5.400133936044191	0.9744852468427491	20.66161489019196	89.02551480919013	0	0
0.3	-0.2039571409743335	1.146387907428248	-83.99375518456723	0	0.9399999999999999	0	-0.9314482459930775	0.2283359582705022	3.553297123824471	-3.312078123507993	-0.05780666833848987	0	0	0	-0.6466656719670424	2.079708217740948	2.843935323420287	-1.525965799994127	-0.02663312748272679	0	0	0	0	0	0	5.493863539383896	-5.493863539383901	0.9912269786745064	20.99743948428976	89.00877307908898	0	0	5.493863539383896	-5.493863539383901	0.9912269786745064	20.99743948428976	89.00877307833976	0	0
0.32	-0.1917761697452397	1.093033057696369	-83.97596207500399	0	0.9399999999999999	0	-1.064940792254577	0.2264217465619686	3.56362341788729	-3.497086595227941	-0.06103567531408578	0	0	0	-0.8029025728717136	2.096199323495245	2.878701093537879	-1.77363396848688	-0.0309557524753094	0	0	0	0	0	0	5.606788222259913	-5.606788222259918	1.011816581266268	21.46495055826337	88.98818347770649	0	0	5.606788222259913	-5.606788222259918	1.011816581266268	21.46495055826337	88.98818347696124	0	0
0.34	-0.2018660699125949	1.179068525001421	-83.98861455708175	0	0.9399999999999999	0	-0.9283791191908215	0.2269242408928	3.582602367127123	-3.261018593596133	-0.0569155114270074	0	0	0	-0.6843615898501972	2.085877745952771	2.831329914247146	-1.585164593103123	-0.02766634133568569	0	0	0	0	0	0	5.696502993914269	-5.696502993914274	1.027804782176756	21.78604577644665	88.97219527772977	0	0	5.696502993914269	-5.696502993914274	1.027804782176756	21.78604577644665	88.97219527698752	0	0
0.36	-0.199862602203941	1.161758136031696	-83.98484112431042	0	0.9399999999999999	0	-1.023441753192221	0.2248788292343235	3.619261178373052	-3.477286460583223	-0.06069009777219727	0	0	0	-0.7956789873138886	2.095261149217463	2.84473361922782	-1.834220119001287	-0.03201318028289466	0	0	0	0	0	0	5.948451955403203	-5.94845195540321	1.072760202478672	22.66089436115345	88.92723986005375	0	0	5.948451955403203	-5.94845195540321	1.072760202478672	22.66089436115345	88.92723985931991	0	0
0.3800000000000001	-0.2069551338761388	1.227012238892858	-83.95891179713438	0	0.9399999999999999	0	-0.9425736497202379	0.2286747407658277	3.594395098897196	-3.26518260081591	-0.05698818706306931	0	0	0	-0.6980506505319264	2.087231832021262	2.827715135078312	-1.631484791717905	-0.02847478131169136	0	0	0	0	0	0	6.035727375162479	-6.035727375162486	1.08823265550802	22.96921023513348	88.91176740792699	0	0	6.035727375162479	-6.035727375162486	1.08823265550802	22.96921023513348	88.91176740719607	0	0
